<?xml version="1.0" encoding="UTF-8" standalone="no"?>
<!DOCTYPE svg PUBLIC "-//W3C//DTD SVG 1.1//EN" "http://www.w3.org/Graphics/SVG/1.1/DTD/svg11.dtd">
<svg width="100%" height="100%" viewBox="0 0 75 75" version="1.1" xmlns="http://www.w3.org/2000/svg" xmlns:xlink="http://www.w3.org/1999/xlink" xml:space="preserve" style="fill-rule:evenodd;clip-rule:evenodd;stroke-linecap:round;stroke-linejoin:round;stroke-miterlimit:1.5;">
    <g transform="matrix(1.71593,0,0,1.71593,-20.7035,-12.6658)">
        <g transform="matrix(0.977412,0,0,1,8.22517,-3.25404)">
            <path d="M15.032,20.992C15.032,20.992 20.758,22.878 26.213,23.204C31.669,23.529 38.118,21.621 38.118,21.621C38.118,21.621 36.803,48.37 33.826,51.913C32.013,54.071 19.418,52.952 17.618,51.184C14.576,48.198 15.032,20.992 15.032,20.992Z" style="fill:rgb(207,204,204);stroke:rgb(207,204,204);stroke-width:0.59px;"/>
        </g>
        <g transform="matrix(0.839134,0,0,1,6.69857,2.46501)">
            <path d="M18.163,11.756C18.163,11.756 27.481,15.126 32.371,15.28C37.261,15.434 47.096,12.398 47.096,12.398C47.764,12.563 39.176,10.178 32.092,9.917C24.856,9.652 18.163,11.756 18.163,11.756Z" style="fill:rgb(207,204,204);stroke:rgb(207,204,204);stroke-width:0.63px;"/>
        </g>
        <g transform="matrix(0.909268,0,0,0.879452,3.00714,1.72169)">
            <path d="M20.495,14.282C20.373,15.838 20.425,17.396 20.821,18.959C20.821,18.959 29.518,21.504 34.014,21.731C41.312,22.099 47.349,19.445 47.349,19.445L47.481,14.974C47.481,14.974 40.271,17.09 34.055,17.009C27.948,16.928 20.495,14.282 20.495,14.282Z" style="fill:rgb(207,204,204);stroke:rgb(207,204,204);stroke-width:0.65px;"/>
        </g>
        <g transform="matrix(1.07005,0,0,1.07005,-2.07372,-1.33832)">
            <g transform="matrix(0.601935,0,0,0.472823,14.2095,4.63243)">
                <path d="M18.169,12.201C18.169,12.201 27.481,15.126 32.371,15.28C37.261,15.434 47.62,13.359 47.62,13.359C48.289,13.524 39.176,10.178 32.092,9.917C24.856,9.652 18.169,12.201 18.169,12.201Z" style="fill:rgb(207,204,204);stroke:rgb(207,204,204);stroke-width:1.01px;"/>
            </g>
            <g transform="matrix(1.82997,0,0,1.21524,-27.3307,-5.75029)">
                <path d="M28.147,16.341L28.582,13.297C31.903,14.599 35.154,14.74 38.343,13.704L38.782,16.571C35.299,18.06 31.758,17.809 28.147,16.341Z" style="fill:rgb(207,204,204);stroke:rgb(207,204,204);stroke-width:0.35px;"/>
            </g>
        </g>
        <g transform="matrix(1,0,0,1,-0.245161,-1.57828)">
            <path d="M22.374,27.829C22.23,31.606 22.08,35.385 22.797,38.86C30.618,42.526 38.287,42.704 44.54,39.797C45.343,36.035 45.554,31.955 45.804,27.895C38.613,30.814 34.288,30.621 22.764,27.887C22.515,27.828 22.374,27.829 22.374,27.829Z" style="fill:rgb(207,204,204);stroke:rgb(207,204,204);stroke-width:0.58px;"/>
        </g>
    </g>
</svg>
