<?xml version="1.0" encoding="UTF-8" standalone="no"?>
<!DOCTYPE svg PUBLIC "-//W3C//DTD SVG 1.1//EN" "http://www.w3.org/Graphics/SVG/1.1/DTD/svg11.dtd">
<svg width="100%" height="100%" viewBox="0 0 75 75" version="1.1" xmlns="http://www.w3.org/2000/svg" xmlns:xlink="http://www.w3.org/1999/xlink" xml:space="preserve" style="fill-rule:evenodd;clip-rule:evenodd;stroke-linecap:round;stroke-linejoin:round;stroke-miterlimit:1.5;">
    <g transform="matrix(1.42508,0,0,1.55786,-15.492,-8.98416)">
        <g>
            <g>
                <g transform="matrix(1,0,0,0.948068,-0.510051,2.24003)">
                    <path d="M59.409,31.217C44.92,35.044 30.418,35.295 15.893,29.886C15.893,29.886 15.226,33.373 17.396,35.748C19.214,37.738 26.025,38.295 33.544,38.803C42.76,39.425 53.038,39.581 56.493,37.372C59.424,35.499 59.409,31.217 59.409,31.217Z" style="fill:rgb(180,126,78);stroke:black;stroke-width:0.69px;"/>
                </g>
                <g transform="matrix(1,0,0,0.789899,-1.49172,8.34757)">
                    <path d="M16.601,27.127C14.459,28.204 14.105,31.786 16.988,31.706C19.607,31.634 22.321,33.792 25.058,33.674C29.31,33.49 32.015,35.539 34.342,35.757C36.648,35.973 38.903,35.007 42.77,34.86C46.76,34.708 48.985,35.71 51.937,34.699C54.35,33.873 58.384,32.014 60.728,32.141C62.664,32.247 63.759,29.499 60.868,28.411C59.148,27.764 53.965,27.165 48.749,27.314C43.693,27.458 38.054,29.358 35.035,28.533C28.903,26.857 27.912,26.309 24.702,26.93C21.492,27.551 18.995,25.924 16.601,27.127Z" style="fill:rgb(21,119,33);stroke:black;stroke-width:0.75px;"/>
                </g>
                <g transform="matrix(1,0,0,0.66623,-1.607,11.0546)">
                    <path d="M15.31,27.54C11.834,30.207 22.628,32.853 25.365,32.735C29.617,32.551 35.102,35.007 38.969,34.86C42.959,34.708 51.275,34.282 54.227,33.271C56.64,32.444 65.262,31.854 62.372,29.504C60.79,28.219 53.965,27.165 48.749,27.314C43.693,27.458 38.054,29.358 35.035,28.533C28.903,26.857 27.912,26.309 24.702,26.93C21.492,27.551 18.236,25.294 15.31,27.54Z" style="fill:rgb(226,137,131);stroke:black;stroke-width:0.8px;"/>
                </g>
                <g transform="matrix(1,0,0,0.562204,-1.22273,12.886)">
                    <path d="M15.645,26.812C12.168,30.782 20.95,31.412 23.642,32.23C28.462,33.695 36.283,34.825 40.15,34.678C44.14,34.527 52.998,33.406 55.95,32.395C58.363,31.568 64.446,31.433 61.33,27.851C59.884,26.189 53.965,27.165 48.749,27.314C43.693,27.458 38.054,29.358 35.035,28.533C28.903,26.857 27.912,26.309 24.702,26.93C21.492,27.551 18.297,23.783 15.645,26.812Z" style="fill:rgb(210,47,36);stroke:black;stroke-width:0.85px;"/>
                </g>
                <g transform="matrix(1,0,0,0.878063,-0.510051,0.92731)">
                    <g>
                        <path d="M18.916,25.046C14.719,27.833 15.778,31.14 15.778,31.14C31.749,34.433 46.116,34.613 59.298,32.086C59.298,32.086 60.331,30.19 58.154,27.514C55.412,24.144 51.11,24.892 51.11,24.892C51.11,24.892 49.713,23.393 46.365,23.065C43.682,22.802 40.617,23.834 40.617,23.834C40.617,23.834 37.517,21.92 34.039,22.03C30.211,22.151 26.696,24.33 26.696,24.33C26.696,24.33 22.483,22.677 18.916,25.046Z" style="fill:rgb(180,126,78);stroke:black;stroke-width:0.72px;"/>
                    </g>
                </g>
                <g transform="matrix(0.868787,0,0,0.794738,4.60579,3.31084)">
                    <path d="M23.896,23.62C25.72,24.241 27.149,25.042 27.726,26.002" style="fill:none;stroke:black;stroke-width:0.81px;"/>
                </g>
                <g transform="matrix(0.868787,0,0,0.794738,18.6201,2.88999)">
                    <path d="M23.801,23.389C25.587,24.321 26.883,25.258 27.957,26.546" style="fill:none;stroke:black;stroke-width:0.81px;"/>
                </g>
                <g transform="matrix(0.868787,0,0,0.794738,27.8846,3.22227)">
                    <path d="M23.902,23.321C25.726,23.941 26.883,25.258 27.957,26.546" style="fill:none;stroke:black;stroke-width:0.81px;"/>
                </g>
            </g>
        </g>
    </g>
</svg>
