<?xml version="1.0" encoding="UTF-8" standalone="no"?>
<!DOCTYPE svg PUBLIC "-//W3C//DTD SVG 1.1//EN" "http://www.w3.org/Graphics/SVG/1.1/DTD/svg11.dtd">
<svg width="100%" height="100%" viewBox="0 0 75 75" version="1.1" xmlns="http://www.w3.org/2000/svg" xmlns:xlink="http://www.w3.org/1999/xlink" xml:space="preserve" style="fill-rule:evenodd;clip-rule:evenodd;stroke-linejoin:round;stroke-miterlimit:1.41421;">
    <g transform="matrix(1,0,0,1,-0.423789,0)">
        <g transform="matrix(1,0,0,1,-0.0223981,-5.57801)">
            <path d="M66.901,28.462C66.901,25.958 64.868,23.924 62.363,23.924L12.707,23.924C10.203,23.924 8.169,25.958 8.169,28.462L8.169,57.694C8.169,60.198 10.203,62.232 12.707,62.232L62.363,62.232C64.868,62.232 66.901,60.198 66.901,57.694L66.901,28.462Z" style="fill:rgb(207,204,204);"/>
            <clipPath id="_clip1">
                <path d="M66.901,28.462C66.901,25.958 64.868,23.924 62.363,23.924L12.707,23.924C10.203,23.924 8.169,25.958 8.169,28.462L8.169,57.694C8.169,60.198 10.203,62.232 12.707,62.232L62.363,62.232C64.868,62.232 66.901,60.198 66.901,57.694L66.901,28.462Z"/>
            </clipPath>
            <g clip-path="url(#_clip1)">
                <g transform="matrix(0.899323,0,0,1,3.01226,1.41433)">
                    <rect x="5.687" y="30.031" width="65.402" height="3.663" style="fill:white;"/>
                </g>
            </g>
        </g>
        <g transform="matrix(0.501042,0,0,1.33814,11.4085,6.66421)">
            <rect x="5.687" y="30.031" width="65.402" height="3.663" style="fill:white;"/>
        </g>
        <g transform="matrix(1,0,0,1,2.50329,0)">
            <circle cx="48.566" cy="36.705" r="4.073" style="fill:white;"/>
        </g>
        <g transform="matrix(1,0,0,1,8.63591,0)">
            <circle cx="48.566" cy="36.705" r="4.073" style="fill:white;"/>
        </g>
    </g>
</svg>
